<?xml version="1.0" standalone="no"?>
<!DOCTYPE svg PUBLIC "-//W3C//DTD SVG 20010904//EN"
 "http://www.w3.org/TR/2001/REC-SVG-20010904/DTD/svg10.dtd">
<svg version="1.0" xmlns="http://www.w3.org/2000/svg"
 width="512.000000pt" height="512.000000pt" viewBox="0 0 512.000000 512.000000"
 preserveAspectRatio="xMidYMid meet">

<g transform="translate(0.000000,512.000000) scale(0.100000,-0.100000)"
fill="#000000" stroke="none">
<path d="M412 4468 c-17 -17 -17 -3359 0 -3376 9 -9 112 -12 400 -12 l388 0 0
-228 c0 -164 3 -231 12 -240 17 -17 2759 -17 2776 0 9 9 12 245 12 1002 l0
990 369 367 c203 202 377 382 387 401 27 52 34 98 22 153 -10 47 -22 61 -181
222 -204 207 -245 231 -347 203 -36 -10 -65 -32 -147 -113 l-103 -101 0 120
c0 80 -4 124 -12 132 -9 9 -112 12 -400 12 l-388 0 0 228 c0 164 -3 231 -12
240 -17 17 -2759 17 -2776 0z m2708 -268 l0 -200 -948 0 c-724 0 -951 -3 -960
-12 -7 -7 -12 -34 -12 -60 l0 -48 -152 0 c-134 0 -157 -2 -185 -20 -59 -36
-63 -55 -63 -302 0 -315 2 -318 250 -318 l150 0 0 -80 0 -80 -150 0 c-169 0
-197 -8 -230 -63 -18 -29 -20 -51 -20 -255 0 -247 4 -266 63 -302 28 -18 51
-20 185 -20 l152 0 0 -100 0 -100 -152 0 c-134 0 -157 -2 -185 -20 -59 -36
-63 -55 -63 -302 0 -315 2 -318 250 -318 l150 0 0 -220 0 -220 -360 0 -360 0
0 1620 0 1620 1320 0 1320 0 0 -200z m800 -412 l0 -131 -758 -759 -758 -758
-69 -199 -70 -200 -28 27 -28 27 -234 3 c-260 3 -278 0 -315 -61 -18 -29 -20
-51 -20 -257 0 -330 -9 -320 322 -320 204 0 226 2 255 20 40 24 63 67 63 117
l0 39 78 26 c42 14 196 67 342 118 l265 92 478 476 477 477 0 -923 0 -922
-1320 0 -1320 0 0 1620 0 1620 1320 0 1320 0 0 -132z m460 62 c14 -10 91 -86
173 -168 l147 -150 0 -49 c0 -28 -7 -59 -16 -73 -25 -37 -127 -140 -139 -140
-5 0 -110 100 -233 223 l-222 222 72 72 c40 40 84 77 98 82 32 13 87 4 120
-19z m-3180 -290 l0 -240 -148 0 c-102 0 -152 4 -160 12 -17 17 -17 439 0 456
8 8 58 12 160 12 l148 0 0 -240z m3067 -132 l223 -223 -77 -77 -78 -78 -227
227 -228 228 72 72 c40 40 77 73 83 73 5 0 110 -100 232 -222z m-612 -758
c-261 -262 -475 -480 -475 -484 0 -14 31 -46 44 -46 6 0 223 212 481 470 258
259 474 470 480 470 13 0 85 -72 85 -85 0 -13 -1328 -1340 -1355 -1353 -11 -5
-114 -42 -228 -82 l-208 -73 -80 79 c-43 43 -79 83 -79 89 0 6 34 107 75 225
l76 215 677 677 677 678 152 -152 153 -153 -475 -475z m-2455 90 l0 -240 -148
0 c-102 0 -152 4 -160 12 -17 17 -17 439 0 456 8 8 58 12 160 12 l148 0 0
-240z m0 -840 l0 -240 -148 0 c-102 0 -152 4 -160 12 -17 17 -17 439 0 456 8
8 58 12 160 12 l148 0 0 -240z m988 -212 c7 -7 12 -40 12 -79 0 -53 -8 -92
-39 -180 -45 -125 -43 -149 9 -149 32 0 41 -25 18 -48 -17 -17 -439 -17 -456
0 -17 17 -17 439 0 456 17 17 439 17 456 0z"/>
<path d="M1703 3380 c-59 -36 -63 -55 -63 -300 0 -245 4 -264 63 -300 29 -18
51 -20 257 -20 330 0 320 -10 320 323 0 217 -1 225 -23 258 -38 56 -50 59
-297 59 -206 0 -228 -2 -257 -20z m485 -72 c7 -7 12 -37 12 -67 0 -53 0 -54
-19 -37 -26 24 -37 17 -155 -103 l-100 -100 -47 44 c-27 25 -57 45 -67 45 -26
0 -45 -25 -38 -48 7 -21 141 -142 157 -142 12 0 53 40 173 167 l96 102 0 -153
c0 -105 -4 -156 -12 -164 -17 -17 -439 -17 -456 0 -17 17 -17 439 0 456 17 17
439 17 456 0z"/>
<path d="M1703 2580 c-59 -36 -63 -55 -63 -300 0 -245 4 -264 63 -300 29 -18
51 -20 257 -20 329 0 320 -9 320 317 0 330 7 323 -325 323 -201 0 -223 -2
-252 -20z m481 -76 c11 -11 16 -34 16 -77 -1 -47 -3 -58 -11 -44 -21 36 -52
19 -159 -88 l-106 -105 -44 45 c-25 26 -53 45 -66 45 -29 0 -49 -25 -38 -48
16 -31 130 -132 150 -132 11 0 73 54 146 127 l128 128 0 -146 c0 -99 -4 -149
-12 -157 -17 -17 -439 -17 -456 0 -17 17 -17 439 0 456 9 9 73 12 224 12 180
0 215 -2 228 -16z"/>
<path d="M2892 1907 c-72 -73 -132 -139 -132 -148 0 -20 20 -39 40 -39 9 0 78
63 154 139 124 126 137 141 126 160 -22 43 -50 26 -188 -112z"/>
</g>
</svg>
